<svg width="23" height="20" viewBox="0 0 23 20" fill="none" xmlns="http://www.w3.org/2000/svg">
    <rect width="22" height="19" transform="translate(0.5 0.5)"/>
    <path
        d="M6.5 15.5V14.5H4.5C3.4 14.5 2.45833 14.1083 1.675 13.325C0.891667 12.5417 0.5 11.6 0.5 10.5V4.5C0.5 3.4 0.891667 2.45833 1.675 1.675C2.45833 0.891667 3.4 0.5 4.5 0.5H18.5C19.6 0.5 20.5417 0.891667 21.325 1.675C22.1083 2.45833 22.5 3.4 22.5 4.5V10.5C22.5 11.6 22.1083 12.5417 21.325 13.325C20.5417 14.1083 19.6 14.5 18.5 14.5H16.5V15.5H6.5V15.5"
        fill="#48636F" />
    <path
        d="M6.5 15.5V14.5H4.5C3.4 14.5 2.45833 14.1083 1.675 13.325C0.891667 12.5417 0.5 11.6 0.5 10.5V4.5C0.5 3.4 0.891667 2.45833 1.675 1.675C2.45833 0.891667 3.4 0.5 4.5 0.5H18.5C19.6 0.5 20.5417 0.891667 21.325 1.675C22.1083 2.45833 22.5 3.4 22.5 4.5V10.5C22.5 11.6 22.1083 12.5417 21.325 13.325C20.5417 14.1083 19.6 14.5 18.5 14.5H16.5V15.5H6.5V15.5"
        stroke="#48636F" stroke-linejoin="bevel" />
</svg>
